<svg width="104" height="109" viewBox="0 0 104 109" fill="none" xmlns="http://www.w3.org/2000/svg">
<path opacity="0.2" d="M86.1672 107.047L72.5303 93.3046C67.4352 98.5826 61.9904 102.516 56.196 105.105C50.4015 107.595 43.8578 108.84 36.5648 108.84C29.3718 108.84 22.9779 107.545 17.3833 104.956C11.8886 102.367 7.5927 98.6822 4.49568 93.9021C1.49856 89.122 0 83.5452 0 77.1718C0 69.9021 2.04803 63.5286 6.14409 58.0515C10.3401 52.4747 16.4841 48.093 24.5764 44.9062C21.3794 41.122 19.0817 37.6365 17.683 34.4498C16.2843 31.2631 15.585 27.7776 15.585 23.9934C15.585 19.6116 16.684 15.678 18.8818 12.1925C21.1796 8.60748 24.4265 5.8191 28.6225 3.82739C32.8184 1.83569 37.6638 0.839844 43.1585 0.839844C48.5533 0.839844 53.2488 1.88549 57.245 3.97677C61.2411 6.06806 64.2382 9.00582 66.2363 12.79C68.2344 16.4747 69.1335 20.6075 68.9337 25.1884H55.2968C55.3967 21.1054 54.2478 17.9187 51.8501 15.6282C49.4525 13.2382 46.3554 12.0432 42.5591 12.0432C38.5629 12.0432 35.316 13.1884 32.8184 15.4788C30.4208 17.6697 29.2219 20.5079 29.2219 23.9934C29.2219 26.9809 30.0211 29.8689 31.6196 32.6573C33.318 35.4457 36.1153 38.8813 40.0115 42.9643L71.1816 74.1842L73.879 70.0017L84.0692 52.9726H98.7551L86.4669 74.1842C84.7685 77.1718 82.7704 80.3087 80.4726 83.595L104 107.047H86.1672ZM36.5648 97.1884C41.9597 97.1884 46.805 96.1427 51.1009 94.0515C55.4966 91.9602 59.6427 88.7237 63.5389 84.3419L32.8184 53.5701C20.0307 58.4498 13.6369 66.1676 13.6369 76.7237C13.6369 82.5992 15.7349 87.4788 19.9308 91.3627C24.2267 95.2465 29.7714 97.1884 36.5648 97.1884Z" fill="black"/>
</svg>
