<svg width="104" height="109" viewBox="0 0 104 109" fill="none" xmlns="http://www.w3.org/2000/svg">
<path opacity="0.2" d="M86.1672 106.558L72.5303 92.8148C67.4352 98.0928 61.9904 102.026 56.196 104.616C50.4015 107.105 43.8578 108.35 36.5648 108.35C29.3718 108.35 22.9779 107.055 17.3833 104.466C11.8886 101.877 7.5927 98.1924 4.49568 93.4123C1.49856 88.6323 0 83.0555 0 76.682C0 69.4123 2.04803 63.0389 6.14409 57.5617C10.3401 51.985 16.4841 47.6032 24.5764 44.4165C21.3794 40.6323 19.0817 37.1468 17.683 33.9601C16.2843 30.7733 15.585 27.2879 15.585 23.5036C15.585 19.1219 16.684 15.1883 18.8818 11.7028C21.1796 8.11773 24.4265 5.32935 28.6225 3.33765C32.8184 1.34595 37.6638 0.350098 43.1585 0.350098C48.5533 0.350098 53.2488 1.39574 57.245 3.48702C61.2411 5.57831 64.2382 8.51607 66.2363 12.3003C68.2344 15.9849 69.1335 20.1177 68.9337 24.6986H55.2968C55.3967 20.6157 54.2478 17.4289 51.8501 15.1385C49.4525 12.7484 46.3554 11.5534 42.5591 11.5534C38.5629 11.5534 35.316 12.6986 32.8184 14.9891C30.4208 17.18 29.2219 20.0181 29.2219 23.5036C29.2219 26.4912 30.0211 29.3791 31.6196 32.1675C33.318 34.9559 36.1153 38.3916 40.0115 42.4746L71.1816 73.6945L73.879 69.5119L84.0692 52.4829H98.7551L86.4669 73.6945C84.7685 76.682 82.7704 79.819 80.4726 83.1053L104 106.558H86.1672ZM36.5648 96.6986C41.9597 96.6986 46.805 95.653 51.1009 93.5617C55.4966 91.4704 59.6427 88.2339 63.5389 83.8522L32.8184 53.0804C20.0307 57.9601 13.6369 65.6779 13.6369 76.2339C13.6369 82.1094 15.7349 86.9891 19.9308 90.8729C24.2267 94.7567 29.7714 96.6986 36.5648 96.6986Z" fill="black"/>
</svg>
