<svg width="31" height="30" viewBox="0 0 31 30" fill="none" xmlns="http://www.w3.org/2000/svg">
<g clip-path="url(#clip0_502_5866)">
<path fill-rule="evenodd" clip-rule="evenodd" d="M2.45907 1.77781C2.6633 1.46505 2.90273 1.16842 3.17736 0.893789C3.25436 0.816789 3.33026 0.74529 3.40506 0.679291C3.52862 0.547659 3.80399 0.373494 3.80215 0.371661C5.60504 -0.825494 6.90082 1.08702 8.8313 3.0175C10.9777 5.16395 13.1018 6.52537 10.9554 8.67181C10.0692 9.5584 8.95414 10.0787 7.79951 10.2327C9.16167 12.3766 10.8491 14.4966 12.8617 16.5089C15.1302 18.7774 17.6569 20.7541 20.2147 22.3326C20.24 20.9587 20.7761 19.5925 21.8236 18.5449C23.9701 16.3985 25.3315 18.5226 27.4779 20.669C29.587 22.7781 31.674 24.1289 29.7102 26.2115L29.7142 26.2122C22.5595 33.3669 14.8721 29.437 7.71738 22.2823C1.05768 15.623 -2.80805 8.50131 2.45907 1.77781Z" fill="black"/>
</g>
<defs>
<clipPath id="clip0_502_5866">
<rect width="30.4957" height="30" fill="white"/>
</clipPath>
</defs>
</svg>
