<svg width="15" height="15" viewBox="0 0 15 15" fill="none" xmlns="http://www.w3.org/2000/svg">
<path d="M11.772 7.5C11.772 9.85932 9.85932 11.772 7.5 11.772C5.14068 11.772 3.22804 9.85932 3.22804 7.5C3.22804 5.14068 5.14068 3.22804 7.5 3.22804C9.85932 3.22804 11.772 5.14068 11.772 7.5ZM7.8232 2.01599V0.323195C7.8232 0.144756 7.67854 0 7.5 0C7.32146 0 7.1768 0.14466 7.1768 0.323195V2.01599C7.1768 2.19443 7.32146 2.33918 7.5 2.33918C7.67854 2.33918 7.8232 2.19452 7.8232 2.01599ZM4.91959 3.03061C5.07417 2.94139 5.12713 2.74368 5.03791 2.58919L4.19152 1.12322C4.1023 0.968632 3.90468 0.915672 3.7501 1.00489C3.59551 1.09411 3.54255 1.29183 3.63177 1.44632L4.47817 2.91229C4.538 3.01601 4.64668 3.07393 4.75833 3.07393C4.8131 3.07393 4.86873 3.06 4.91959 3.03061ZM3.03061 4.91959C3.11983 4.76501 3.06687 4.56739 2.91229 4.47817L1.44632 3.63177C1.29173 3.54255 1.09411 3.59551 1.00489 3.7501C0.915672 3.90468 0.968632 4.1023 1.12322 4.19152L2.58919 5.03791C2.64005 5.0673 2.69568 5.08124 2.75045 5.08124C2.8621 5.08124 2.97078 5.02331 3.03061 4.91959ZM2.33918 7.5C2.33918 7.32156 2.19452 7.1768 2.01599 7.1768H0.323195C0.144756 7.1768 0 7.32146 0 7.5C0 7.67854 0.14466 7.8232 0.323195 7.8232H2.01599C2.19443 7.8232 2.33918 7.67854 2.33918 7.5ZM1.44632 11.3683L2.91229 10.5219C3.06687 10.4327 3.11983 10.2351 3.03061 10.0805C2.94139 9.92592 2.74377 9.87296 2.58919 9.96218L1.12322 10.8086C0.968632 10.8978 0.915672 11.0954 1.00489 11.25C1.06472 11.3537 1.17341 11.4116 1.28505 11.4116C1.33982 11.4116 1.39546 11.3977 1.44632 11.3683ZM4.19152 13.877L5.03791 12.411C5.12713 12.2564 5.07417 12.0588 4.91959 11.9696C4.76501 11.8804 4.56739 11.9333 4.47817 12.0879L3.63177 13.5539C3.54255 13.7085 3.59551 13.9061 3.7501 13.9953C3.80096 14.0247 3.85659 14.0386 3.91136 14.0386C4.023 14.0386 4.13169 13.9807 4.19152 13.877ZM7.8232 14.6769V12.9841C7.8232 12.8057 7.67854 12.6609 7.5 12.6609C7.32146 12.6609 7.1768 12.8056 7.1768 12.9841V14.6769C7.1768 14.8553 7.32146 15.0001 7.5 15.0001C7.67854 15.0001 7.8232 14.8554 7.8232 14.6769ZM11.25 13.9953C11.4046 13.9061 11.4575 13.7085 11.3683 13.5539L10.5219 12.0879C10.4327 11.9333 10.2351 11.8804 10.0805 11.9696C9.92592 12.0588 9.87296 12.2564 9.96218 12.411L10.8086 13.877C10.8684 13.9807 10.9771 14.0386 11.0887 14.0386C11.1436 14.0386 11.1991 14.0247 11.25 13.9953ZM13.9952 11.2501C14.0844 11.0955 14.0315 10.8979 13.8769 10.8087L12.4109 9.96228C12.2563 9.87306 12.0587 9.92602 11.9695 10.0806C11.8803 10.2352 11.9332 10.4328 12.0878 10.522L13.5538 11.3684C13.6046 11.3978 13.6603 11.4117 13.715 11.4117C13.8267 11.4117 13.9354 11.3537 13.9952 11.2501ZM15 7.5001C15 7.32166 14.8553 7.1769 14.6768 7.1769H12.984C12.8056 7.1769 12.6608 7.32156 12.6608 7.5001C12.6608 7.67863 12.8055 7.82329 12.984 7.82329H14.6768C14.8552 7.82329 15 7.67863 15 7.5001ZM12.4109 5.03791L13.8769 4.19152C14.0315 4.1023 14.0844 3.90458 13.9952 3.7501C13.906 3.59551 13.7084 3.54255 13.5538 3.63177L12.0878 4.47817C11.9332 4.56739 11.8803 4.7651 11.9695 4.91959C12.0293 5.02331 12.138 5.08124 12.2496 5.08124C12.3044 5.08124 12.36 5.0673 12.4109 5.03791ZM10.5219 2.91229L11.3683 1.44632C11.4575 1.29173 11.4046 1.09411 11.25 1.00489C11.0954 0.915672 10.8978 0.968632 10.8086 1.12322L9.96218 2.58919C9.87296 2.74377 9.92592 2.94139 10.0805 3.03061C10.1314 3.06 10.187 3.07393 10.2418 3.07393C10.3534 3.07393 10.4621 3.01601 10.5219 2.91229Z" fill="white"/>
</svg>
