<svg width="30" height="30" viewBox="0 0 30 30" fill="none" xmlns="http://www.w3.org/2000/svg">
<path d="M21.7391 19.3791C25.353 15.1231 25.525 8.74818 21.8551 4.28722C17.7321 -0.724737 10.2992 -1.44773 5.28722 2.67623C0.275263 6.7992 -0.447732 14.2321 3.67623 19.2441C7.3462 23.7041 13.6341 24.764 18.5071 22.0381L25.0581 30L28.29 27.341L21.7391 19.3791ZM18.8441 19.1541C14.7701 22.5061 8.72919 21.9181 5.37722 17.8441C2.02525 13.7701 2.61324 7.72919 6.68721 4.37722C10.7612 1.02525 16.8021 1.61324 20.1541 5.68721C23.5061 9.76117 22.9181 15.8021 18.8441 19.1541Z" fill="black"/>
</svg>
