<svg width="338" height="422" viewBox="0 0 338 422" fill="none" xmlns="http://www.w3.org/2000/svg">
<path d="M157.335 19.1831H205.408L211.402 1H242.916H274.427L282.388 19.1831H328.497V180.245L337 197.041V284.382L329.93 296.823V421H50.439L9 375.957V18.9309L157.335 19.1831Z" stroke="white" stroke-width="2" stroke-miterlimit="10"/>
<path d="M41 393L111.073 393L129 410L56.9274 410L41 393Z" fill="white"/>
<path d="M321.216 20V181.502L330.827 201.126V281.282L316 304.735V20H321.216Z" fill="white"/>
<path d="M300.049 32.4169L296.854 25.4884H276.93L270.45 8H234.993H215.653L210.043 24.9709H9.55469V29.4699H259.219L262.096 32.4169H300.049Z" fill="white"/>
<path d="M17 75V149.073L0 165V90.9274L17 75Z" fill="white"/>
</svg>
