<svg width="1681" height="704" viewBox="0 0 1681 704" fill="none" xmlns="http://www.w3.org/2000/svg">
<path d="M765.884 32.3051H1010.21L1040.67 2H1200.83H1360.99L1401.44 32.3051H1635.78V285.742L1679 328.734V474.304L1643.07 510.038V702H120.96L12 593.596V31.8848L765.884 32.3051Z" stroke="white" stroke-width="3" stroke-miterlimit="10"/>
<path d="M1622.28 32.5V299.624L1661 338.413V466.404L1611 514.5V32.5H1622.28Z" fill="white"/>
<path d="M1491 68.5L1474.74 48.5123H1393.72L1350.58 15.5H1160H1051.43L1022.89 45.8791H13V53.5062H1283.26L1297.9 68.5H1491Z" fill="white"/>
<path d="M295 686.5H130.393L91 646.5H259.607L295 686.5Z" fill="white"/>
<path d="M40 98.7695V263.375L0 298.77V134.164L40 98.7695Z" fill="white"/>
</svg>
