<svg viewBox="0 0 50 50" fill="none" xmlns="http://www.w3.org/2000/svg"><g clip-path="url(#clip0_581_5)"><path d="M19.323 13.0874C17.993 13.1502 17.0848 13.3624 16.2908 13.6744C15.469 13.9947 14.7725 14.4244 14.0795 15.1199C13.3865 15.8154 12.9598 16.5124 12.6418 17.3354C12.334 18.1312 12.1255 19.0402 12.0668 20.3709C12.008 21.7017 11.995 22.1294 12.0015 25.5239C12.008 28.9184 12.023 29.3439 12.0875 30.6774C12.151 32.0072 12.3625 32.9152 12.6745 33.7094C12.9953 34.5312 13.4245 35.2274 14.1203 35.9207C14.816 36.6139 15.5125 37.0397 16.3375 37.3582C17.1325 37.6654 18.0418 37.8749 19.3723 37.9332C20.7028 37.9914 21.131 38.0049 24.5245 37.9984C27.918 37.9919 28.3453 37.9769 29.6785 37.9137C31.0118 37.8504 31.915 37.6374 32.7095 37.3269C33.5313 37.0054 34.228 36.5769 34.9208 35.8809C35.6135 35.1849 36.04 34.4874 36.3578 33.6639C36.6658 32.8689 36.875 31.9597 36.9328 30.6302C36.991 29.2959 37.0048 28.8699 36.9983 25.4759C36.9918 22.0819 36.9765 21.6564 36.9133 20.3234C36.85 18.9904 36.6383 18.0852 36.3265 17.2904C36.0053 16.4687 35.5765 15.7729 34.881 15.0792C34.1855 14.3854 33.4875 13.9592 32.6643 13.6422C31.8688 13.3344 30.96 13.1247 29.6295 13.0672C28.299 13.0097 27.8708 12.9949 24.476 13.0014C21.0813 13.0079 20.6563 13.0224 19.323 13.0874ZM19.469 35.6844C18.2503 35.6314 17.5885 35.4289 17.1475 35.2594C16.5635 35.0344 16.1475 34.7624 15.708 34.3272C15.2685 33.8919 14.9985 33.4744 14.7705 32.8917C14.5993 32.4507 14.393 31.7897 14.336 30.5709C14.274 29.2537 14.261 28.8582 14.2538 25.5209C14.2465 22.1837 14.2593 21.7887 14.317 20.4709C14.369 19.2532 14.5728 18.5907 14.742 18.1499C14.967 17.5652 15.238 17.1499 15.6743 16.7107C16.1105 16.2714 16.5268 16.0009 17.11 15.7729C17.5505 15.6009 18.2115 15.3964 19.4298 15.3384C20.748 15.2759 21.143 15.2634 24.4798 15.2562C27.8165 15.2489 28.2125 15.2614 29.5313 15.3194C30.749 15.3724 31.4118 15.5742 31.852 15.7444C32.4363 15.9694 32.852 16.2397 33.2913 16.6767C33.7305 17.1137 34.0013 17.5284 34.2293 18.1129C34.4015 18.5522 34.606 19.2129 34.6635 20.4319C34.7263 21.7502 34.7405 22.1454 34.7465 25.4819C34.7525 28.8184 34.7408 29.2147 34.683 30.5319C34.6298 31.7507 34.4278 32.4127 34.258 32.8542C34.033 33.4379 33.7618 33.8542 33.3253 34.2932C32.8888 34.7322 32.473 35.0027 31.8895 35.2307C31.4495 35.4024 30.7878 35.6074 29.5705 35.6654C28.2523 35.7274 27.8573 35.7404 24.5193 35.7477C21.1813 35.7549 20.7875 35.7414 19.4693 35.6844M29.6593 18.8192C29.6598 19.1159 29.7482 19.4057 29.9135 19.6522C30.0787 19.8986 30.3134 20.0904 30.5877 20.2035C30.862 20.3166 31.1637 20.3457 31.4545 20.2873C31.7454 20.2289 32.0125 20.0856 32.2219 19.8754C32.4313 19.6652 32.5737 19.3976 32.631 19.1065C32.6883 18.8154 32.658 18.5139 32.544 18.24C32.4299 17.9661 32.2372 17.7322 31.9902 17.5678C31.7432 17.4035 31.453 17.3161 31.1563 17.3167C30.7585 17.3175 30.3774 17.4762 30.0967 17.758C29.8159 18.0397 29.6586 18.4214 29.6593 18.8192ZM18.0818 25.5124C18.0888 29.0574 20.9678 31.9247 24.512 31.9179C28.0563 31.9112 30.9255 29.0324 30.9188 25.4874C30.912 21.9424 28.0323 19.0744 24.4875 19.0814C20.9428 19.0884 18.075 21.9679 18.0818 25.5124ZM20.3333 25.5079C20.3316 24.6838 20.5744 23.8777 21.0309 23.1916C21.4874 22.5055 22.1371 21.9701 22.8979 21.6533C23.6586 21.3364 24.4962 21.2522 25.3048 21.4114C26.1134 21.5706 26.8566 21.9659 27.4405 22.5475C28.0244 23.1291 28.4227 23.8707 28.5851 24.6787C28.7475 25.4866 28.6666 26.3246 28.3527 27.0866C28.0389 27.8486 27.5061 28.5004 26.8218 28.9596C26.1375 29.4188 25.3324 29.6648 24.5083 29.6664C23.9611 29.6676 23.419 29.5609 22.913 29.3525C22.407 29.1442 21.9471 28.8382 21.5594 28.452C21.1717 28.0658 20.8638 27.6071 20.6535 27.1019C20.4431 26.5968 20.3343 26.0551 20.3333 25.5079Z" fill="black"></path></g><defs><clipPath id="clip0_581_5"><rect width="25" height="25" fill="white" transform="translate(12 13)"></rect></clipPath></defs></svg>