<svg viewBox="0 0 50 50" fill="none" xmlns="http://www.w3.org/2000/svg"><path fill-rule="evenodd" clip-rule="evenodd" d="M36.2839 15.5968C37.5048 15.9258 38.4677 16.8935 38.7936 18.1226C39.3871 20.3516 39.3871 25 39.3871 25C39.3871 25 39.3871 29.65 38.7936 31.8774C38.4677 33.1065 37.5048 34.0742 36.2839 34.4032C34.071 35 25.1935 35 25.1935 35C25.1935 35 16.3177 35 14.1032 34.4032C12.8823 34.0742 11.9194 33.1065 11.5935 31.8774C11 29.6484 11 25 11 25C11 25 11 20.3516 11.5935 18.1226C11.9194 16.8935 12.8823 15.9258 14.1032 15.5968C16.3161 15 25.1935 15 25.1935 15C25.1935 15 34.071 15 36.2839 15.5968ZM29.7104 25.0003L22.291 20.7793V29.2212L29.7104 25.0003Z" fill="black"></path></svg>