<svg viewBox="0 0 81 40" fill="none" xmlns="http://www.w3.org/2000/svg" class="light">
				<path d="M69.8966 12.8203C63.3355 12.8203 59.0149 16.5695 58.5994 21.88H65.1583C65.4177 19.2259 67.2933 17.5591 70.2594 17.5591C72.9661 17.5591 74.4239 19.1225 74.4239 20.8905C74.4239 22.1395 73.7994 22.8167 72.0822 23.0784L68.1772 23.6502C62.6055 24.4308 58.076 26.4098 58.076 32.2415C58.076 37.343 61.8249 39.9994 66.6139 39.9994C71.4028 39.9994 73.7973 38.0731 75.1517 35.5729V39.0626H80.7739V24.1185C80.7739 16.9851 77.6495 12.8203 69.8922 12.8203M74.6306 29.2201C74.6306 33.0419 71.5677 35.6257 67.887 35.2804C65.9125 35.0957 64.3557 33.4025 64.5514 31.4278C64.7603 29.3103 66.682 28.3625 69.5316 27.9689L72.0822 27.5533C73.175 27.4499 74.0083 27.1377 74.6328 26.6693V29.2201H74.6306Z" fill="black"></path>
				<path d="M56.5417 12.9297H50.1895V39.0774H56.5417V12.9297Z" fill="black"></path>
				<path d="M48.4235 12.9297V19.2825H42.4539C41.603 19.2825 40.9147 19.9707 40.9147 20.8217V39.0796H34.5625V20.5403C34.5625 16.3381 37.9684 12.9297 42.1702 12.9297H48.4213H48.4235Z" fill="black"></path>
				<path d="M20.409 24.8153H12.6012L16.5413 14.6737L20.409 24.8153ZM20.2683 7.47656H12.9969L0 39.0711H7.30211L10.3958 30.7503H22.61L25.6596 39.0711H33.2674L20.2705 7.47656H20.2683Z" fill="black"></path>
				<path d="M53.3925 8.42639C55.7188 8.42639 57.6054 6.55508 57.6054 4.24618V4.18021C57.6054 1.87131 55.7188 0 53.3925 0C51.0662 0 49.1797 1.87131 49.1797 4.18021V4.24618C49.1797 6.55508 51.0662 8.42639 53.3925 8.42639Z" fill="black"></path>
			</svg>