<svg viewBox="0 0 81 40" fill="none" xmlns="http://www.w3.org/2000/svg" class="dark">
				<g clip-path="url(#clip0_2086_10)">
				<path d="M70.0923 12.8157C63.5128 12.8157 59.1801 16.5622 58.7634 21.8689H65.3406C65.6008 19.2167 67.4816 17.5511 70.4561 17.5511C73.1704 17.5511 74.6322 19.1134 74.6322 20.8802C74.6322 22.1283 74.006 22.8051 72.284 23.0665L68.3681 23.6379C62.7808 24.418 58.2386 26.3957 58.2386 32.2232C58.2386 37.3212 61.998 39.9757 66.8003 39.9757C71.6027 39.9757 74.0039 38.0507 75.362 35.5523V39.0396H81V24.106C81 16.9776 77.8668 12.8157 70.0879 12.8157M74.8395 29.2039C74.8395 33.023 71.768 35.605 68.077 35.2601C66.097 35.0755 64.5359 33.3835 64.7321 31.4102C64.9416 29.2941 66.8687 28.347 69.7262 27.9536L72.284 27.5383C73.3798 27.435 74.2154 27.123 74.8417 26.655V29.2039H74.8395Z" fill="white"></path>
				<path d="M56.6997 12.9077H50.3297V39.0372H56.6997V12.9077Z" fill="white"></path>
				<path d="M48.559 12.9077V19.2561H42.5726C41.7193 19.2561 41.0292 19.9439 41.0292 20.7943V39.0394H34.6592V20.5129C34.6592 16.3137 38.0746 12.9077 42.2882 12.9077H48.5568H48.559Z" fill="white"></path>
				<path d="M20.4661 24.7912H12.6365L16.5876 14.6568L20.4661 24.7912ZM20.325 7.4646H13.0333L0 39.0371H7.32255L10.4249 30.722H22.6733L25.7315 39.0371H33.3605L20.3272 7.4646H20.325Z" fill="white"></path>
				<path d="M53.5422 8.4205C55.875 8.4205 57.7668 6.55049 57.7668 4.24321V4.17729C57.7668 1.87 55.875 0 53.5422 0C51.2094 0 49.3176 1.87 49.3176 4.17729V4.24321C49.3176 6.55049 51.2094 8.4205 53.5422 8.4205Z" fill="white"></path>
				</g>
				<defs>
				<clipPath id="clip0_2086_10">
				<rect width="81" height="40" fill="white"></rect>
				</clipPath>
				</defs>
			</svg>